<svg xmlns="http://www.w3.org/2000/svg" width="18.858" height="20.422" viewBox="0 0 18.858 20.422">
  <g id="Group_32" data-name="Group 32" transform="translate(0 205.234)">
    <path id="Path_153" data-name="Path 153" d="M14.678-193.836v-3.043l2.905,2.905a.744.744,0,0,0,.528.219.744.744,0,0,0,.528-.219.746.746,0,0,0,0-1.055l-3.961-3.961v-4.02a2.313,2.313,0,0,0-2.388-2.224H6.568a2.313,2.313,0,0,0-2.388,2.224v4.02L.219-195.029a.746.746,0,0,0,0,1.055.744.744,0,0,0,.528.219.744.744,0,0,0,.528-.219l2.905-2.905v3.043L.219-189.875a.746.746,0,0,0,0,1.055.744.744,0,0,0,.528.219.744.744,0,0,0,.528-.219l2.905-2.906v4.689a2.313,2.313,0,0,0,2.388,2.224H12.29a2.313,2.313,0,0,0,2.388-2.224v-4.689l2.905,2.906a.744.744,0,0,0,.528.219.744.744,0,0,0,.528-.219.746.746,0,0,0,0-1.055Zm-1.493-4.857v8.708H5.672v-8.708Zm-6.618-5.048H12.29a.837.837,0,0,1,.9.731v2.824H5.672v-2.824A.837.837,0,0,1,6.568-203.741ZM12.29-186.3H6.568a.837.837,0,0,1-.9-.731v-1.457h7.514v1.457A.837.837,0,0,1,12.29-186.3Z" transform="translate(0)" fill="#1c78ec"/>
  </g>
</svg>
